<svg xmlns="http://www.w3.org/2000/svg" xmlns:xlink="http://www.w3.org/1999/xlink" viewBox="0 0 691.71 679.02"><defs><linearGradient id="linear-gradient" x1="691.65" y1="132.03" x2="352.14" y2="132.03" gradientUnits="userSpaceOnUse"><stop offset="0" stop-color="#6546bc"/><stop offset="1" stop-color="#ab269e"/></linearGradient><linearGradient id="linear-gradient-2" x1="339.57" y1="572.14" x2="0" y2="572.14" gradientUnits="userSpaceOnUse"><stop offset="0" stop-color="#f2633d"/><stop offset="1" stop-color="#ea2030"/></linearGradient><linearGradient id="linear-gradient-3" x1="31.49" y1="603.57" x2="31.49" gradientUnits="userSpaceOnUse"><stop offset="0" stop-color="#f2cc1e"/><stop offset="1" stop-color="#e46523"/></linearGradient><linearGradient id="linear-gradient-4" x1="660.21" y1="100.6" x2="660.21" y2="679.02" xlink:href="#linear-gradient-3"/><linearGradient id="linear-gradient-5" x1="339.57" y1="31.44" x2="0.06" y2="31.44" xlink:href="#linear-gradient"/><linearGradient id="linear-gradient-6" x1="301.89" y1="301.57" x2="502.85" y2="301.57" gradientTransform="translate(331.09 -196.19) rotate(45)" gradientUnits="userSpaceOnUse"><stop offset="0" stop-color="#2072e1"/><stop offset="1" stop-color="#1f74df"/></linearGradient><linearGradient id="linear-gradient-7" x1="188.84" y1="200.97" x2="389.81" y2="200.97" gradientTransform="translate(226.85 -145.72) rotate(45)" gradientUnits="userSpaceOnUse"><stop offset="0" stop-color="#ab269e"/><stop offset="1" stop-color="#ea2030"/></linearGradient><linearGradient id="linear-gradient-8" x1="188.84" y1="100.49" x2="389.81" y2="100.49" gradientTransform="translate(155.8 -175.15) rotate(45)" xlink:href="#linear-gradient-6"/><linearGradient id="linear-gradient-9" x1="691.71" y1="647.58" x2="339.57" y2="647.58" xlink:href="#linear-gradient-2"/><linearGradient id="linear-gradient-10" x1="453.42" y1="520.92" x2="466.42" y2="520.92" gradientTransform="translate(200.3 88.73)" gradientUnits="userSpaceOnUse"><stop offset="0"/><stop offset="0.14" stop-opacity="0.6"/><stop offset="1" stop-opacity="0"/></linearGradient><linearGradient id="linear-gradient-11" x1="301.89" y1="201.08" x2="502.85" y2="201.08" gradientTransform="translate(260.04 -225.62) rotate(45)" xlink:href="#linear-gradient-7"/><linearGradient id="linear-gradient-12" x1="350.08" y1="250.24" x2="363.08" y2="250.24" gradientTransform="translate(265.7 -118.21)" xlink:href="#linear-gradient-10"/><linearGradient id="linear-gradient-13" x1="408.05" y1="127.89" x2="420.77" y2="127.89" gradientTransform="matrix(0.71, -0.71, 1, 1, -28.88, 296.7)" xlink:href="#linear-gradient-10"/><linearGradient id="linear-gradient-14" x1="320.89" y1="39.17" x2="333.35" y2="39.17" gradientTransform="matrix(-0.71, -0.71, 1, -1, 491.21, 301.92)" xlink:href="#linear-gradient-10"/><linearGradient id="linear-gradient-15" x1="-125.61" y1="244.84" x2="-112.61" y2="244.84" gradientTransform="translate(150.6 -175.47)" xlink:href="#linear-gradient-10"/><linearGradient id="linear-gradient-16" x1="62.93" y1="572.14" x2="75.93" y2="572.14" gradientTransform="matrix(1, 0, 0, 1, 0, 0)" xlink:href="#linear-gradient-10"/><linearGradient id="linear-gradient-17" x1="257" y1="205.53" x2="270" y2="205.53" gradientTransform="translate(5.47 -51.55) scale(1 1.13)" xlink:href="#linear-gradient-10"/><linearGradient id="linear-gradient-18" x1="334.08" y1="229.49" x2="347.08" y2="229.49" gradientTransform="translate(82.32 21.15) scale(1 1.13)" xlink:href="#linear-gradient-10"/></defs><title>logo</title><g id="Layer_1" data-name="Layer 1"><rect x="352.14" y="100.6" width="339.51" height="62.87" fill="url(#linear-gradient)"/><rect y="540.7" width="339.57" height="62.87" fill="url(#linear-gradient-2)"/><rect x="0.06" width="62.87" height="603.57" fill="url(#linear-gradient-3)"/><rect x="628.78" y="100.6" width="62.87" height="578.42" fill="url(#linear-gradient-4)"/><rect x="0.06" width="339.51" height="62.87" fill="url(#linear-gradient-5)"/><rect x="295.79" y="266.04" width="213.16" height="71.05" transform="translate(-95.39 372.84) rotate(-45)" fill="url(#linear-gradient-6)"/><rect x="253.8" y="94.4" width="71.05" height="213.16" transform="translate(-57.37 263.45) rotate(-45)" fill="url(#linear-gradient-7)"/><rect x="182.75" y="64.97" width="213.16" height="71.05" transform="translate(13.68 234.02) rotate(-45)" fill="url(#linear-gradient-8)"/><rect x="339.57" y="616.15" width="352.14" height="62.87" fill="url(#linear-gradient-9)"/><rect x="653.71" y="578.21" width="13" height="62.87" transform="translate(50.57 1269.86) rotate(-90)" opacity="0.3" fill="url(#linear-gradient-10)"/><rect x="366.84" y="94.51" width="71.05" height="213.16" transform="translate(-24.34 343.41) rotate(-45)" fill="url(#linear-gradient-11)"/><rect x="615.78" y="100.6" width="13" height="62.87" transform="translate(1244.56 264.06) rotate(180)" opacity="0.4" fill="url(#linear-gradient-12)"/><polygon points="430.17 163.47 415.05 163.56 352.25 100.75 370.07 100.59 430.17 163.47" opacity="0.4" fill="url(#linear-gradient-13)"/><polygon points="324.08 0.01 339.4 -0.08 276.46 62.86 258.83 62.86 324.08 0.01" opacity="0.4" fill="url(#linear-gradient-14)"/></g><g id="Layer_2" data-name="Layer 2"><rect x="24.99" y="37.94" width="13" height="62.87" transform="translate(100.86 37.88) rotate(90)" opacity="0.4" fill="url(#linear-gradient-15)"/><rect x="62.93" y="540.7" width="13" height="62.87" opacity="0.3" fill="url(#linear-gradient-16)"/><rect x="262.47" y="145.09" width="13" height="71.01" transform="translate(206.48 -137.3) rotate(45)" opacity="0.4" fill="url(#linear-gradient-17)"/><rect x="416.4" y="245.07" width="13" height="71.08" transform="translate(920.35 180) rotate(135)" opacity="0.4" fill="url(#linear-gradient-18)"/></g></svg>